<?xml version="1.0" encoding="UTF-8"?>
<svg id="Layer_1" xmlns="http://www.w3.org/2000/svg" version="1.1" xmlns:xlink="http://www.w3.org/1999/xlink" viewBox="0 0 165 25">
  <!-- Generator: Adobe Illustrator 29.1.0, SVG Export Plug-In . SVG Version: 2.1.0 Build 142)  -->
  <defs>
    <style>
      .st0 {
        fill: #231f20;
      }

      .st1 {
        fill: #1b1b1b;
      }

      .st2 {
        fill: url(#linear-gradient);
      }
    </style>
    <linearGradient id="linear-gradient" x1="88.3" y1="4.22" x2="88.3" y2="20.46" gradientUnits="userSpaceOnUse">
      <stop offset="0" stop-color="#1f562a"/>
      <stop offset=".02" stop-color="#31633b"/>
      <stop offset=".07" stop-color="#6f9276"/>
      <stop offset=".13" stop-color="#a2b9a7"/>
      <stop offset=".18" stop-color="#cad7cd"/>
      <stop offset=".22" stop-color="#e7ede8"/>
      <stop offset=".26" stop-color="#f8faf9"/>
      <stop offset=".29" stop-color="#fff"/>
      <stop offset=".33" stop-color="#fdfbfb"/>
      <stop offset=".36" stop-color="#f9f1f1"/>
      <stop offset=".39" stop-color="#f3dfe0"/>
      <stop offset=".42" stop-color="#eac6c7"/>
      <stop offset=".44" stop-color="#dea7a8"/>
      <stop offset=".47" stop-color="#cf7f82"/>
      <stop offset=".5" stop-color="#be5154"/>
      <stop offset=".52" stop-color="#aa1d20"/>
      <stop offset=".53" stop-color="#a61115"/>
      <stop offset=".55" stop-color="#b53a3d"/>
      <stop offset=".59" stop-color="#cb7577"/>
      <stop offset=".62" stop-color="#dda6a8"/>
      <stop offset=".65" stop-color="#eccccd"/>
      <stop offset=".68" stop-color="#f6e8e8"/>
      <stop offset=".71" stop-color="#fcf9f9"/>
      <stop offset=".73" stop-color="#fff"/>
      <stop offset=".76" stop-color="#f9fafb"/>
      <stop offset=".79" stop-color="#eaedf3"/>
      <stop offset=".83" stop-color="#d1d9e4"/>
      <stop offset=".87" stop-color="#aebbd0"/>
      <stop offset=".92" stop-color="#8096b6"/>
      <stop offset=".96" stop-color="#4a6997"/>
      <stop offset="1" stop-color="#1c437d"/>
    </linearGradient>
  </defs>
  <g>
    <g>
      <path class="st0" d="M82.3,22.05l-14.43-13.3v12.81h-3.7V2.03l14.43,13.49V2.42h3.7v19.64Z"/>
      <path class="st0" d="M90.15,21.56h-3.7V2.42h3.7v19.14Z"/>
      <path class="st0" d="M104.35,21.81l-7.6-13.22v12.97h-2.08V4.94l-1.45-2.52h4.66l7.35,14.1,8.09-14.1h2.99v19.14h-3.68V7.41l-8.28,14.4Z"/>
      <path class="st0" d="M140.88,21.56h-4.66l-4.11-8.04-3.32,5.32-3.4-5.43-4.58,8.14h-2.19l11.13-19.69,11.13,19.69ZM128.79,15.77l2.44-3.92-2.36-4.61-2.58,4.55,2.5,3.98Z"/>
    </g>
    <g>
      <path class="st1" d="M27.77,7.14c0,.53-.02,1.3.02,2.06,0,.18.21.36.36.51,2.78,2.76,5.56,5.52,8.34,8.28.16.16.29.33.52.6-.36.02-.59.05-.81.05-2.68,0-5.36-.01-8.04.02-.34,0-.74.16-1.01.37-1.02.79-1.99,1.64-3.03,2.51.59.77,1.14,1.5,1.7,2.21.06.08.18.15.27.15,1.09.01,2.18,0,3.26,0,.02-.05.05-.09.07-.14-.51-.49-1-1.02-1.55-1.47-.18-.14-.51-.07-.77-.14-.16-.04-.34-.12-.42-.25-.04-.06.09-.29.19-.38.36-.32.72-.66,1.13-.91.24-.15.57-.21.86-.21,3.9-.01,7.8,0,11.71,0,.21,0,.43,0,.66,0-4.54-4.47-9.05-8.9-13.47-13.26Z"/>
      <path class="st1" d="M47.61,12.31c.51.49.92.88,1.33,1.29.01,0,.07,0,.08-.02.55-.84,1.41-.74,2.23-.69.5.03.72-.11.68-.65-.04-.59,0-1.18,0-1.78-.03-1.61-1.24-2.91-2.85-2.95-2.07-.05-4.13-.01-6.2-.03-.34,0-.43.14-.42.45.02.92,0,1.83.04,2.75.01.24.15.51.32.69,2.04,2.15,4.1,4.28,6.12,6.45.46.49.91.46,1.36.1.52-.41.99-.89,1.46-1.35.61-.61,1.22-1.22,1.8-1.86.25-.28.52-.38.9-.37.89.02,1.78,0,2.85,0-.67-.67-1.19-1.27-1.8-1.74-.23-.18-.7-.05-1.05-.1-.91-.14-1.59.16-2.18.9-.66.82-1.47,1.53-2.19,2.3-.27.28-.44.25-.7-.02-1.59-1.71-3.21-3.39-4.79-5.11-.21-.22-.22-.64-.26-.98,0-.07.24-.26.37-.26,1.4-.02,2.8-.02,4.21,0,.49,0,.86.25,1.06.71.28.62.12.86-.55.91-.15.01-.34.04-.45.13-.46.39-.9.81-1.36,1.23Z"/>
      <path class="st1" d="M54.39,23.76c-.5-.49-.99-.98-1.5-1.45-.08-.08-.24-.14-.34-.12-.59.1-.92-.27-1.28-.63-6.99-7.01-13.98-14.02-20.97-21.03-.15-.15-.24-.35-.36-.53-.07.05-.14.09-.21.14,0,.78-.03,1.56.02,2.34.01.19.23.39.39.55,5.16,5.13,10.32,10.26,15.48,15.39,1.71,1.7,3.42,3.39,5.12,5.09.29.29.58.43,1,.41.86-.02,1.72,0,2.58,0,.03-.05.06-.1.09-.16Z"/>
      <path class="st1" d="M34.38,17.67c-.2-.22-.29-.35-.4-.46-1.78-1.78-3.55-3.57-5.33-5.34-1.65-1.64-3.62-2.08-5.75-1.23-2.07.82-3.15,2.47-3.3,4.71-.1,1.54-.81,2.69-2.29,3.22-1.45.51-2.73.15-3.77-.98-.16-.17-.29-.36-.47-.59-.45.51-.81.92-1.22,1.39.84,1.07,1.95,1.85,3.4,2.09,3.07.52,6.01-1.76,6.15-4.98.06-1.48.77-2.62,2.21-3.16,1.46-.55,2.75-.18,3.84.92,1.35,1.37,2.72,2.72,4.11,4.05.21.2.55.32.84.35.61.05,1.22.02,1.98.02Z"/>
      <path class="st1" d="M45.64,20.24c-6.16-6.07-12.32-12.13-18.45-18.17,0,.64-.01,1.44.01,2.24,0,.13.16.27.27.38,5.16,5.13,10.32,10.26,15.49,15.37.19.19.52.3.8.33.6.05,1.21.01,1.81.01.02-.05.04-.11.07-.16Z"/>
      <path class="st1" d="M35.87,21.41c.77.82,1.48,1.59,2.21,2.35.06.07.2.1.3.1,1.16,0,2.33,0,3.52-.07-.77-.66-1.16-1.83-2.52-1.65-.25.03-.59-.14-.79-.32-.31-.29-.62-.44-1.05-.42-.55.03-1.1,0-1.67,0Z"/>
    </g>
  </g>
  <path class="st2" d="M90.15,21.53h-3.7V2.39h3.7v19.14Z"/>
</svg>